<?xml version="1.0" encoding="UTF-8" standalone="no"?><!-- Generator: Gravit.io --><svg xmlns="http://www.w3.org/2000/svg" xmlns:xlink="http://www.w3.org/1999/xlink" style="isolation:isolate" viewBox="747.951 564.618 341.853 148.997" width="341.853pt" height="148.997pt"><path d=" M 871 624 C 872.905 618.033 877.248 615.709 884 617 C 867.609 587.625 897.703 560.063 916 575 C 925.969 555.609 962.672 564.188 951 594 C 975.979 590.527 986.989 602.87 984 631 C 991.255 628.42 995.265 630.43 996 637 C 1013.297 610.313 1053.094 626.625 1024 660 C 1026.604 662.06 1027.958 664.08 1028 666 C 1034.659 664.955 1039.003 665.965 1041 669 C 1050.483 668.318 1060.16 669.662 1070 673 C 1096.063 673.208 1096.406 674.552 1071 677 C 1065.441 679.039 1060.451 679.049 1056 677 C 1042.229 681.465 1026.572 682.808 1009 681 C 999.373 684.827 989.049 685.837 978 684 C 965.414 688.849 950.757 690.526 934 689 C 934.545 694.434 936.888 697.111 941 697 C 946.354 696.375 950.031 698.052 952 702 C 953.742 705.12 942.752 707.797 919 710 C 906.477 713.305 889.154 714.315 867 713 C 847.112 714.527 834.799 713.214 830 709 C 835.984 705.891 843.994 705.234 854 707 C 857.625 703.5 862.968 701.843 870 702 L 879 701 C 873.977 697.843 868.32 697.186 862 699 C 856.72 699.641 852.397 698.651 849 696 C 840.214 698.483 831.557 698.16 823 695 C 802.957 698.276 786.3 697.952 773 694 C 772.213 692.472 774.556 691.815 780 692 C 780.86 689.002 786.203 687.345 796 687 C 784.732 686.389 770.095 686.086 752 686 C 740.196 685.979 754.206 682.656 794 676 C 798.528 669.217 804.871 668.561 813 674 C 816.84 669.539 822.183 668.882 829 672 C 833.408 665.728 839.751 664.071 848 667 C 840.464 658.599 842.141 651.609 853 646 C 842.297 630.844 858.188 616.641 871 624 Z " fill="rgb(255,255,255)"/></svg>