<?xml version="1.0" encoding="UTF-8" standalone="no"?><!-- Generator: Gravit.io --><svg xmlns="http://www.w3.org/2000/svg" xmlns:xlink="http://www.w3.org/1999/xlink" style="isolation:isolate" viewBox="329.217 137.299 325.037 121.599" width="325.037pt" height="121.599pt"><path d=" M 450 161 C 452 127.5 507.875 130.125 507 165 C 527.551 159.127 540.228 166.47 545 187 C 558.625 185.881 568.635 189.891 575 199 C 592.537 193.36 603.547 199.037 608 216 C 614.891 214.151 621.235 216.161 627 222 C 661.333 215.5 668.333 233 618 234 C 605.637 246.847 585.314 249.19 557 241 C 533.552 248.012 510.229 248.022 487 241 C 469.111 260.333 449.121 264.01 427 252 C 406.919 257.171 389.929 253.847 376 242 C 315.083 250 315.333 221.75 367 225 C 372.336 211.656 385.012 203.332 405 200 C 400.849 173.714 415.859 160.724 450 161 Z " fill="rgb(255,255,255)"/></svg>