<?xml version="1.0" encoding="UTF-8" standalone="no"?><!-- Generator: Gravit.io --><svg xmlns="http://www.w3.org/2000/svg" xmlns:xlink="http://www.w3.org/1999/xlink" style="isolation:isolate" viewBox="489 279.278 313.597 134.481" width="313.597pt" height="134.481pt"><path d=" M 756 377 C 814.125 378.938 818.344 368.813 766 367 C 763.619 359.043 756.629 355.719 745 357 C 770.672 326.203 735.656 304.969 725 325 C 719.766 314.25 705.422 319.031 702 334 C 699.667 324.167 694.01 321.177 685 325 C 688.02 307.767 681.364 299.444 665 300 C 657.531 284.3 649.541 280.977 641 290 C 624.094 270.633 589.289 278.016 589 308 C 573.469 297.633 552.375 311.344 560 337 C 534.445 316.617 508.711 336.867 522 367 C 508.25 368.615 497.26 372.958 489 380 L 553 381 C 536.01 383.198 526.02 388.541 523 397 C 545.097 399.264 563.774 399.274 579 397 L 570 405 C 584.233 408.542 595.576 407.552 604 402 L 593 412 C 625.124 415.468 651.801 413.811 673 407 L 697 403 L 728 399 C 715.138 391.386 705.482 389.396 699 393 C 696.417 390.125 692.76 388.135 688 387 C 694.911 387.108 700.588 385.118 705 381 C 726.282 385.647 743.292 384.324 756 377 Z " fill="rgb(255,255,255)"/></svg>