<?xml version="1.0" encoding="UTF-8" standalone="no"?><!-- Generator: Gravit.io --><svg xmlns="http://www.w3.org/2000/svg" xmlns:xlink="http://www.w3.org/1999/xlink" style="isolation:isolate" viewBox="830.981 255.114 286.007 139.722" width="286.007pt" height="139.722pt"><path d=" M 861 350 C 823.833 352.833 821.583 341.583 852 340 C 861.743 317.299 874.086 308.642 889 314 C 890.383 300.665 899.727 295.342 917 298 C 919.778 286.111 928.121 281.788 942 285 C 941.083 249.583 1004.833 242.083 1002 282 C 1022.109 276.176 1034.119 281.186 1038 297 C 1051.053 292.335 1060.73 298.012 1067 314 C 1080.476 312.189 1092.152 316.532 1102 327 C 1124.833 325.333 1120.583 340.583 1096 339 C 1089.489 344.159 1081.166 346.502 1071 346 C 1070.333 365.333 1048.833 378.833 1024 373 C 1023.333 397.333 981.583 404.083 961 379 C 947.083 403.083 903.833 397.333 905 376 C 889.492 382.712 880.502 379.389 878 366 C 864.706 366.746 859.05 361.423 861 350 Z " fill="rgb(255,255,255)"/></svg>