<?xml version="1.0" encoding="UTF-8" standalone="no"?><!-- Generator: Gravit.io --><svg xmlns="http://www.w3.org/2000/svg" xmlns:xlink="http://www.w3.org/1999/xlink" style="isolation:isolate" viewBox="682.422 411.558 417.829 131.439" width="417.829pt" height="131.439pt"><path d=" M 1099 535 C 1086.362 532.176 1072.038 531.519 1056 533 C 1051.231 522.742 1042.575 519.419 1030 523 C 1033.711 504.703 1002.422 507.305 1000 523 C 996.902 519.285 993.912 517.962 991 519 C 991.677 512.653 989.354 510.33 984 512 C 981.767 502.973 976.777 500.317 969 504 C 966.141 489.445 948.422 492.398 946 513 C 943.628 506.589 940.972 504.599 938 507 C 942.314 497.827 941.657 490.837 936 486 C 951.875 462.875 919.625 441.25 909 459 C 902.387 456.49 897.731 457.167 895 461 C 893.667 455.306 890.01 452.982 884 454 C 889.579 445.877 887.589 440.221 878 437 C 892.625 415.354 861.313 405.913 847 415 C 837.708 407.667 823.333 418.042 827 430 C 815.833 426.792 811.833 450.417 829 454 C 820.832 453.27 817.508 455.613 819 461 C 799.958 453.042 785.458 471.792 798 484 C 791.604 487.278 791.614 490.621 798 494 C 800.439 496.717 800.459 498.737 798 500 C 792.1 494.033 787.777 494.376 785 501 C 776.208 488.042 745.333 504.917 757 515 C 748.284 520.11 748.627 523.12 758 524 C 752.733 528.133 747.41 528.809 742 526 C 755.583 496.667 695.333 516.542 711 532 C 673.922 529.805 671.883 540.703 711 541 C 733.33 543.658 751.34 543.668 765 541 C 821.497 543.676 854.84 543.353 865 540 L 879 540 C 894.999 543.288 910.009 543.298 924 540 C 929.876 538.775 934.886 538.785 939 540 C 942.984 541.126 947.327 541.136 952 540 C 955.457 538.815 960.467 538.825 967 540 C 979.82 541.343 990.163 541.353 998 540 C 1009.564 541.054 1018.917 541.074 1026 540 C 1038.675 540.152 1048.018 539.829 1054 539 C 1089.896 537.609 1104.906 536.285 1099 535 Z " fill="rgb(255,255,255)"/></svg>