<?xml version="1.0" encoding="UTF-8" standalone="no"?><!-- Generator: Gravit.io --><svg xmlns="http://www.w3.org/2000/svg" xmlns:xlink="http://www.w3.org/1999/xlink" style="isolation:isolate" viewBox="0 560.316 1440 339.684" width="1440pt" height="339.684pt"><path d=" M 0 900 L 1440 900 L 1440 787 L 1436 787 L 1430 784 L 1424 787 L 1418 787 L 1418 797 L 1408 797 L 1408 667 L 1398 667 L 1398 648 Q 1310 647.109 1310 648 Q 1310 648.891 1310 800 L 1308 800 L 1308 791 L 1288 791 L 1288 799 L 1281 799 L 1281 791 L 1267 791 L 1267 722 L 1261 722 L 1261 712 L 1258 712 L 1258 701 L 1247 701 L 1247 698 L 1231 698 L 1231 701 L 1213 701 L 1213 707 L 1197 707 L 1197 712 L 1185 712 L 1185 800 L 1164 800 L 1164 797 L 1158 797 L 1158 792 L 1135 792 L 1135 797 L 1114 797 L 1114 776 L 1111 776 L 1111 662 L 1106 662 L 1106 659 L 1098 659 L 1098 644 L 1093 644 L 1093 640 L 1091 640 L 1091 630 L 1059 630 L 1059 640 L 1056 640 L 1056 644 L 1053 644 L 1053 659 L 1043 659 L 1043 662 L 1039 662 L 1039 797 L 1011 797 L 1011 800 L 973 800 L 973 797 L 969 797 L 969 791 L 956 791 L 956 797 L 946 797 L 946 721 Q 937.521 719 938 719 Q 938.479 719 893 719 L 885 721 L 885 744 L 870 744 L 870 771 L 852 771 L 850 765 L 841 765 L 839 771 L 818 771 L 818 708 L 793 708 L 793 699 L 781 699 L 781 696 L 778 696 L 778 705 L 776 705 L 776 708 L 756 708 L 756 781 L 750 781 L 750 769 L 747 769 L 747 763 L 699 763 L 699 769 L 690 769 L 690 840 L 658 840 L 658 810 L 603 810 L 603 800 L 588 800 L 588 792 L 579 792 L 579 693 L 524.5 688 L 494 688 L 494 698 L 490 698 L 490 826 L 472 826 L 472 805 L 464 805 L 464 698 L 456 698 L 456 614 L 449 614 L 449 586 L 433 586 L 433 578 L 429 578 C 429 572.125 416.375 560.316 397.812 560.316 C 388.25 560.316 367 565 367 578 L 363 578 L 363 585 L 351 585 L 351 614 L 340 614 L 340 822 L 329 822 Q 329.073 805.621 329 805 C 327.778 794.634 322.788 789.644 314 790 C 313.333 788.5 311.899 787.621 309.667 787.333 L 275.417 787.333 C 273.573 787.671 272.445 788.57 272 790 C 262.05 788.574 256.726 793.918 256 806 L 256 821 L 222 821 L 222 830 L 196 830 L 196 797 L 189 797 L 189 661 L 181 661 L 181 644 L 179 644 L 179 637 L 171 637 L 171 630 L 165 630 L 165 623 L 161 623 L 161 618 C 138.944 615.278 117.288 615.288 96 618 L 96 623 L 91 623 L 91 630 L 85 630 L 85 637 L 76 637 L 76 661 L 66 661 L 66 696 L 56 696 L 56 719 L 0 719 L 0 900 Z " fill="rgb(38,145,144)"/></svg>