<?xml version="1.0" encoding="UTF-8" standalone="no"?><!-- Generator: Gravit.io --><svg xmlns="http://www.w3.org/2000/svg" xmlns:xlink="http://www.w3.org/1999/xlink" style="isolation:isolate" viewBox="0 211 1440 689" width="1440pt" height="689pt"><path d=" M 427.832 349.631 L 413 317 C 411.695 315.051 410.363 313.781 409 313.187 L 409 300 L 411 300 L 411 299 L 408 299 L 408 284 L 410 284 L 410 283 L 408 283 L 408 269 L 410 269 L 410 268 L 408 268 L 408 253 L 410 253 L 410 252 L 408 252 L 408 238 L 409 238 L 409 237 L 408 237 L 407.41 237 L 407.41 222 L 409 222 L 409 221 L 407.41 221 L 407.41 211 L 406 211 L 406 221 L 405 221 L 405 221 L 405 221 L 405 221 L 405 221 L 405 221 L 405 222 L 406 222 L 406 237 L 405 237 L 405 237 L 405 237 L 405 237 L 405 237 L 405 237 L 405 238 L 406 238 L 406 252 L 404 252 L 404 252 L 404 252 L 404 252 L 404 252 L 404 253 L 406 253 L 406 268 L 404 268 L 404 268 L 404 268 L 404 268 L 404 269 L 406 269 L 406 283 L 404 283 L 404 283 L 404 283 L 404 284 L 406 284 L 406 299 L 403 299 L 403 299 L 403 300 L 405 300 L 405 313.345 C 403.693 313.991 402.36 315.21 401 317 L 385.414 349.145 C 381.495 350.323 379 351.934 379 354 L 379 361 L 375 361 L 344 817 L 333 817 L 333 807 L 322 807 L 322 729 L 312 729 L 312 609 L 303 609 L 303 589 L 301 589 L 301 575 L 294 575 L 257 554 L 219 575 L 211 575 L 211 589 L 209 589 L 209 607 L 199 609 L 199 726 L 184 726 L 160 626 L 160 600 L 148 598 L 148 563 C 112.501 556.662 73.844 556.672 32 563 L 32 712 L 22 712 L 22 709 L 5 709 L 5 712 L 0 712 L 0 900 L 1440 900 L 1440 691 L 1432 691 L 1432 647 L 1425 647 L 1425 644 L 1405 644 L 1405 647 L 1396 647 L 1396 672 L 1318 672 L 1318 682 L 1304 682 L 1304 680 L 1244 680 L 1244 687 L 1246 708 L 1213 708 L 1213 584 L 1209 584 L 1209 533 L 1156 520 L 1156 717 L 1149 717 L 1149 691 L 1153 677 L 1146 677 L 1146 662 L 1138 662 L 1138 659 L 1062 659 L 1062 771 L 988 771 L 988 773 L 985 773 L 985 607 L 959 604 L 959 589 L 901 584 L 869 587 L 869 495 L 824 486 L 777 495 L 777 591 L 751 591 L 751 626 L 747 626 L 747 617 L 735 606 L 687 606 L 675 618 L 675 626 L 670 626 L 670 636 L 668 636 L 668 650 L 663 650 L 663 714 L 658 714 L 658 717 L 646 717 L 646 726 L 639 726 L 639 792 L 633 786 L 607 786 L 597 796 L 597 807 L 490 800 L 477 800 L 477 803 L 473 803 L 438 361 L 434 361 L 434 354 C 434 352.525 431.662 350.944 427.832 349.631 Z  M 425.512 348.919 L 412 319 L 409 319 L 409 339 L 410 339 L 410 346.734 C 415.899 346.928 421.32 347.767 425.512 348.919 Z  M 404 346.738 L 404 340 L 405 340 L 405 319 L 401 319 L 387.653 348.554 C 392.184 347.499 398.023 346.902 404 346.738 Z " fill-rule="evenodd" fill="rgb(32,176,174)"/></svg>