<?xml version="1.0" encoding="UTF-8" standalone="no"?><!-- Generator: Gravit.io --><svg xmlns="http://www.w3.org/2000/svg" xmlns:xlink="http://www.w3.org/1999/xlink" style="isolation:isolate" viewBox="0 458 1440 442" width="1440pt" height="442pt"><path d=" M 0 900 L 1440 900 L 1440 674 L 1418 674 L 1418 550 L 1419 550 L 1419 548 L 1418 548 L 1418 544 L 1419 544 L 1419 542 L 1418 542 L 1396 524 L 1396 522 L 1360 522 L 1360 524 L 1357 524 L 1357 515 L 1355 515 L 1355 508 L 1352 508 L 1352 499 L 1349 499 L 1349 476 L 1347 476 L 1347 499 L 1344 499 L 1344 508 L 1341 508 L 1341 515 L 1339 515 L 1339 524 L 1334 524 Q 1334 531.313 1334 531 Q 1334 530.688 1325 531 L 1325 536 L 1323 536 L 1323 651 L 1313 651 L 1313 533 L 1310 533 L 1310 514 L 1308 514 L 1292 476 L 1292 469 L 1291 468 L 1291 461 Q 1288.75 461 1289 461 Q 1289.25 461 1289 468 L 1288 469 L 1288 476 L 1271 514 L 1269 514 L 1269 533 L 1266 533 L 1266 579 L 1258 579 L 1258 554 L 1257 554 L 1257 547 L 1255 547 L 1255 538 L 1253 538 L 1253 520 L 1225 520 L 1225 538 L 1223 538 L 1223 546 L 1221 546 L 1221 553 L 1220 553 L 1220 572 L 1211 588 L 1167 588 L 1167 491 L 1149 485 L 1121 491 L 1121 661 L 1104 661 L 1104 528 L 1053 528 L 1053 522 L 1039 522 L 1039 528 L 1029 528 L 1029 572 L 1024 572 L 1024 638 L 1020 638 L 1020 644 L 998 644 L 998 648 L 990 648 L 990 650 L 984 650 L 759 650 L 759 479 L 763 479 L 763 467 L 765 467 L 765 461 L 761 461 L 761 458 L 710 458 L 710 461 L 707 461 L 707 466 L 708 466 L 708 479 L 711 479 L 711 661 L 663 661 L 663 597 L 656 591 L 654 591 L 654 587 L 650 587 L 650 591 L 649 591 L 642 597 L 642 607 L 638 607 L 638 585 L 634 585 L 634 552 L 630 552 L 630 545 L 623 545 L 619 534 L 619 531 L 618 531 L 618 525 L 616 525 L 616 522 L 615 522 L 615 519 L 614 519 L 614 522 L 613 522 L 613 525 L 612 525 L 612 531 L 610 531 L 610 534 L 607 545 L 599 545 L 599 553 L 594 553 L 594 585 L 589 585 L 589 639 L 586 639 L 586 635 L 561 635 L 561 519 L 559 519 L 559 508 L 557 508 L 557 482 L 554 482 L 554 476 L 552 476 L 552 464 L 527 464 L 527 475 L 524 475 L 524 481 L 521 481 L 521 507 L 520 507 L 520 518 L 518 518 L 518 696 L 507 696 L 507 669 L 472 669 L 472 676 L 458 676 L 375 499 L 327 499 L 327 585 L 304 585 L 304 612 L 213 609 L 166 609 L 166 643 L 28 643 L 28 597 L 0 597 L 0 900 Z " fill="rgb(152,245,243)"/></svg>